<svg width="48" height="48" viewBox="0 0 48 48" fill="none" xmlns="http://www.w3.org/2000/svg">
<g clip-path="url(#clip0_592_2938)" filter="url(#filter0_dd_592_2938)">
<path d="M35.1401 16.8421C34.5804 14.9122 33.5621 13.1464 32.1721 11.6953C30.7821 10.2442 29.0617 9.15092 27.1577 8.50876C25.2766 7.96121 23.2993 7.82666 21.3614 8.11432C19.4234 8.40199 17.5705 9.10507 15.9296 10.1754C15.7946 10.3107 15.6252 10.4067 15.4398 10.4531C15.2544 10.4994 15.0598 10.4944 14.877 10.4386C14.5084 10.3192 14.1763 10.1079 13.9121 9.82455C13.7197 9.47744 13.6575 9.07308 13.7366 8.68419C13.7869 8.49754 13.8751 8.32327 13.9959 8.17233C14.1167 8.02138 14.2673 7.89701 14.4384 7.807C19.0875 5.0877 23.6489 4.38595 28.0349 5.78946C30.1942 6.50768 32.1656 7.69964 33.8047 9.27811C35.4439 10.8566 36.7094 12.7816 37.5085 14.9123H43.3857C42.184 10.1719 39.2871 6.0361 35.2427 3.28683C31.1983 0.537565 26.2868 -0.634627 21.4368 -0.00811872C16.5868 0.618389 12.1343 3.00017 8.92135 6.68692C5.70837 10.3737 3.95749 15.1098 3.99977 20C3.99977 20.7895 4.08749 21.4912 4.08749 22.2807H11.5436C11.8284 22.2645 12.1107 22.3414 12.348 22.4996C12.5853 22.6578 12.7648 22.8888 12.8594 23.1579C13.4323 25.0811 14.4553 26.8402 15.8434 28.2894C17.2316 29.7385 18.945 30.8361 20.8419 31.4912C22.723 32.0388 24.7002 32.1733 26.6382 31.8856C28.5761 31.598 30.429 30.8949 32.0699 29.8245C32.205 29.6892 32.3743 29.5933 32.5597 29.5469C32.7452 29.5005 32.9398 29.5055 33.1226 29.5614C33.4911 29.6808 33.8232 29.8921 34.0875 30.1754C34.2799 30.5225 34.3421 30.9269 34.2629 31.3158C34.2127 31.5024 34.1244 31.6767 34.0036 31.8276C33.8829 31.9786 33.7323 32.103 33.5612 32.193C30.917 33.9722 27.8008 34.9192 24.6138 34.9123C23.0386 34.9004 21.4732 34.6641 19.9647 34.2105C17.7963 33.5094 15.8162 32.3235 14.1747 30.7428C12.5332 29.162 11.2734 27.2281 10.491 25.0877H4.70153C5.96964 29.7501 8.88277 33.7958 12.9024 36.477C16.9221 39.1582 21.7765 40.2935 26.5683 39.6731C31.3601 39.0527 35.7653 36.7186 38.9696 33.1022C42.174 29.4858 43.9608 24.8316 43.9998 20C44.0161 19.2679 43.9868 18.5355 43.9121 17.807H36.5436C36.2445 17.7872 35.9563 17.6872 35.7093 17.5174C35.4623 17.3476 35.2657 17.1143 35.1401 16.8421Z" fill="#100A42"/>
<path d="M24.0841 28.7495C25.811 28.7329 27.4944 28.2056 28.9222 27.2341C30.3501 26.2626 31.4585 24.8903 32.1078 23.2901C32.7572 21.6898 32.9185 19.9332 32.5715 18.2414C32.2244 16.5497 31.3845 14.9985 30.1575 13.7832C28.9305 12.5679 27.3713 11.7428 25.6763 11.412C23.9813 11.0811 22.2263 11.2592 20.6324 11.9239C19.0384 12.5886 17.6768 13.71 16.719 15.1471C15.7612 16.5841 15.2501 18.2725 15.25 19.9995C15.2499 21.1557 15.479 22.3004 15.924 23.3675C16.369 24.4346 17.021 25.403 17.8425 26.2166C18.6639 27.0302 19.6385 27.673 20.7098 28.1077C21.7811 28.5425 22.928 28.7606 24.0841 28.7495Z" fill="white"/>
</g>
<defs>
<filter id="filter0_dd_592_2938" x="0" y="0" width="48" height="48" filterUnits="userSpaceOnUse" color-interpolation-filters="sRGB">
<feFlood flood-opacity="0" result="BackgroundImageFix"/>
<feColorMatrix in="SourceAlpha" type="matrix" values="0 0 0 0 0 0 0 0 0 0 0 0 0 0 0 0 0 0 127 0" result="hardAlpha"/>
<feOffset dy="4"/>
<feGaussianBlur stdDeviation="2"/>
<feComposite in2="hardAlpha" operator="out"/>
<feColorMatrix type="matrix" values="0 0 0 0 0 0 0 0 0 0 0 0 0 0 0 0 0 0 0.25 0"/>
<feBlend mode="normal" in2="BackgroundImageFix" result="effect1_dropShadow_592_2938"/>
<feColorMatrix in="SourceAlpha" type="matrix" values="0 0 0 0 0 0 0 0 0 0 0 0 0 0 0 0 0 0 127 0" result="hardAlpha"/>
<feOffset dy="4"/>
<feGaussianBlur stdDeviation="2"/>
<feComposite in2="hardAlpha" operator="out"/>
<feColorMatrix type="matrix" values="0 0 0 0 0 0 0 0 0 0 0 0 0 0 0 0 0 0 0.25 0"/>
<feBlend mode="normal" in2="effect1_dropShadow_592_2938" result="effect2_dropShadow_592_2938"/>
<feBlend mode="normal" in="SourceGraphic" in2="effect2_dropShadow_592_2938" result="shape"/>
</filter>
<clipPath id="clip0_592_2938">
<rect width="40" height="40" fill="white" transform="translate(4)"/>
</clipPath>
</defs>
</svg>
